<svg width="175" height="175" viewBox="0 0 175 175" fill="none" xmlns="http://www.w3.org/2000/svg">
    <path d="M87.5 175C135.825 175 175 135.825 175 87.5C175 39.1751 135.825 0 87.5 0C39.1751 0 0 39.1751 0 87.5C0 135.825 39.1751 175 87.5 175Z" fill="white"/>
    <path d="M71.4583 127.604C68.6233 127.604 69.1053 126.534 68.1275 123.834L59.7917 96.4009L123.958 58.3333" fill="#0098E4"/>
    <path d="M71.4583 127.604C73.6458 127.604 74.612 126.604 75.8333 125.417L87.5 114.072L72.9473 105.297" fill="#017FBE"/>
    <path d="M72.9458 105.299L108.208 131.351C112.233 133.572 115.136 132.422 116.139 127.616L130.492 59.9761C131.962 54.0845 128.247 51.4114 124.397 53.1592L40.1122 85.6588C34.3591 87.9667 34.3933 91.1765 39.0636 92.6063L60.6929 99.3577L110.767 67.7666C113.131 66.333 115.301 67.103 113.52 68.6838" fill="#0088CC"/>
</svg>
